<svg width="68" height="21" viewBox="0 0 68 21" fill="none" xmlns="http://www.w3.org/2000/svg">
<path d="M23.2503 13.2199V7.82826H25.3775C25.7864 7.82826 26.1348 7.90636 26.4227 8.06256C26.7105 8.21701 26.9299 8.43201 27.0808 8.70756C27.2335 8.98135 27.3099 9.29727 27.3099 9.6553C27.3099 10.0133 27.2326 10.3293 27.0782 10.603C26.9237 10.8768 26.7 11.0901 26.4069 11.2428C26.1155 11.3955 25.7627 11.4718 25.3485 11.4718H23.9927V10.5583H25.1643C25.3837 10.5583 25.5644 10.5206 25.7066 10.4451C25.8505 10.3679 25.9576 10.2617 26.0278 10.1265C26.0997 9.98965 26.1357 9.83257 26.1357 9.6553C26.1357 9.47628 26.0997 9.32008 26.0278 9.1867C25.9576 9.05155 25.8505 8.94713 25.7066 8.87341C25.5627 8.79794 25.3801 8.76021 25.159 8.76021H24.3903V13.2199H23.2503ZM29.1507 7.82826V13.2199H28.0292V7.82826H29.1507ZM31.2022 13.2962C30.9442 13.2962 30.7143 13.2515 30.5124 13.162C30.3106 13.0707 30.1509 12.9364 30.0333 12.7592C29.9175 12.5802 29.8596 12.3573 29.8596 12.0905C29.8596 11.8658 29.9008 11.6772 29.9833 11.5245C30.0658 11.3718 30.1781 11.2489 30.3203 11.1559C30.4624 11.0629 30.6239 10.9927 30.8047 10.9453C30.9872 10.8979 31.1785 10.8646 31.3786 10.8453C31.6138 10.8207 31.8033 10.7979 31.9472 10.7768C32.0911 10.754 32.1956 10.7206 32.2605 10.6768C32.3254 10.6329 32.3579 10.5679 32.3579 10.4819V10.4662C32.3579 10.2994 32.3053 10.1704 32.2 10.0792C32.0964 9.98789 31.949 9.94226 31.7577 9.94226C31.5558 9.94226 31.3953 9.98701 31.2759 10.0765C31.1566 10.1643 31.0776 10.2748 31.039 10.4082L30.0017 10.324C30.0544 10.0783 30.1579 9.86591 30.3124 9.68689C30.4668 9.50612 30.666 9.36747 30.91 9.27094C31.1557 9.17265 31.44 9.12351 31.7629 9.12351C31.9876 9.12351 32.2026 9.14984 32.4079 9.20249C32.615 9.25514 32.7984 9.33676 32.9582 9.44733C33.1196 9.5579 33.2469 9.70006 33.3399 9.87381C33.4329 10.0458 33.4794 10.252 33.4794 10.4925V13.2199H32.4158V12.6591H32.3842C32.3193 12.7855 32.2324 12.8969 32.1236 12.9935C32.0148 13.0882 31.884 13.1628 31.7314 13.2172C31.5787 13.2699 31.4023 13.2962 31.2022 13.2962ZM31.5234 12.5222C31.6884 12.5222 31.834 12.4898 31.9604 12.4248C32.0868 12.3581 32.1859 12.2686 32.2579 12.1563C32.3298 12.044 32.3658 11.9167 32.3658 11.7746V11.3454C32.3307 11.3683 32.2824 11.3893 32.221 11.4086C32.1613 11.4262 32.0938 11.4429 32.0183 11.4587C31.9428 11.4727 31.8674 11.4859 31.7919 11.4981C31.7164 11.5087 31.648 11.5183 31.5866 11.5271C31.4549 11.5464 31.34 11.5771 31.2417 11.6192C31.1434 11.6614 31.0671 11.7184 31.0126 11.7904C30.9582 11.8606 30.931 11.9483 30.931 12.0536C30.931 12.2063 30.9863 12.323 31.0969 12.4038C31.2092 12.4827 31.3514 12.5222 31.5234 12.5222ZM34.8971 14.7363C34.7549 14.7363 34.6215 14.7249 34.4969 14.702C34.3741 14.681 34.2723 14.6538 34.1915 14.6204L34.4443 13.7833C34.5759 13.8236 34.6944 13.8456 34.7997 13.8491C34.9067 13.8526 34.9989 13.828 35.0761 13.7754C35.1551 13.7227 35.2191 13.6332 35.2683 13.5068L35.3341 13.3357L33.8835 9.17617H35.0629L35.9001 12.1458H35.9422L36.7873 9.17617H37.9746L36.4029 13.6569C36.3275 13.8745 36.2248 14.0641 36.0949 14.2255C35.9668 14.3888 35.8045 14.5143 35.6079 14.602C35.4113 14.6915 35.1744 14.7363 34.8971 14.7363ZM41.2595 7.82826L42.5626 11.9246H42.6127L43.9184 7.82826H45.1821L43.3235 13.2199H41.8545L39.9932 7.82826H41.2595ZM45.81 13.2199V9.17617H46.9315V13.2199H45.81ZM46.3734 8.65491C46.2066 8.65491 46.0636 8.59962 45.9442 8.48905C45.8267 8.37672 45.7679 8.24246 45.7679 8.08626C45.7679 7.93181 45.8267 7.7993 45.9442 7.68873C46.0636 7.57641 46.2066 7.52024 46.3734 7.52024C46.5401 7.52024 46.6823 7.57641 46.7998 7.68873C46.9192 7.7993 46.9789 7.93181 46.9789 8.08626C46.9789 8.24246 46.9192 8.37672 46.7998 8.48905C46.6823 8.59962 46.5401 8.65491 46.3734 8.65491ZM49.3199 13.2857C49.0128 13.2857 48.7346 13.2067 48.4854 13.0488C48.2379 12.889 48.0413 12.6547 47.8957 12.3458C47.7518 12.0352 47.6798 11.6543 47.6798 11.2033C47.6798 10.7399 47.7544 10.3547 47.9036 10.0476C48.0528 9.73867 48.2511 9.50788 48.4985 9.35518C48.7478 9.20074 49.0207 9.12351 49.3173 9.12351C49.5437 9.12351 49.7324 9.16212 49.8833 9.23935C50.036 9.31482 50.1589 9.40959 50.2519 9.52367C50.3467 9.636 50.4186 9.74657 50.4678 9.85538H50.502V7.82826H51.6208V13.2199H50.5151V12.5723H50.4678C50.4151 12.6846 50.3405 12.796 50.244 12.9066C50.1492 13.0154 50.0255 13.1058 49.8728 13.1778C49.7218 13.2497 49.5376 13.2857 49.3199 13.2857ZM49.6753 12.3932C49.8561 12.3932 50.0088 12.3441 50.1334 12.2458C50.2598 12.1458 50.3563 12.0062 50.423 11.8272C50.4914 11.6482 50.5257 11.4385 50.5257 11.198C50.5257 10.9576 50.4923 10.7487 50.4256 10.5715C50.3589 10.3942 50.2624 10.2573 50.136 10.1608C50.0097 10.0642 49.8561 10.016 49.6753 10.016C49.491 10.016 49.3357 10.066 49.2094 10.166C49.083 10.2661 48.9873 10.4047 48.9224 10.582C48.8575 10.7593 48.825 10.9646 48.825 11.198C48.825 11.4332 48.8575 11.6412 48.9224 11.822C48.9891 12.001 49.0847 12.1414 49.2094 12.2432C49.3357 12.3432 49.491 12.3932 49.6753 12.3932ZM54.3858 13.2989C53.9698 13.2989 53.6118 13.2146 53.3116 13.0461C53.0133 12.8759 52.7834 12.6354 52.6219 12.3248C52.4604 12.0124 52.3797 11.6429 52.3797 11.2165C52.3797 10.8005 52.4604 10.4354 52.6219 10.1213C52.7834 9.80712 53.0106 9.56228 53.3037 9.38678C53.5986 9.21127 53.9444 9.12351 54.341 9.12351C54.6078 9.12351 54.8561 9.16651 55.086 9.25251C55.3177 9.33676 55.5195 9.464 55.6915 9.63424C55.8653 9.80449 56.0004 10.0186 56.097 10.2766C56.1935 10.5328 56.2418 10.833 56.2418 11.177V11.485H52.8272V10.79H55.1861C55.1861 10.6285 55.151 10.4855 55.0808 10.3608C55.0106 10.2362 54.9132 10.1388 54.7885 10.0686C54.6657 9.99667 54.5227 9.96069 54.3594 9.96069C54.1892 9.96069 54.0383 10.0002 53.9066 10.0792C53.7767 10.1564 53.6749 10.2608 53.6012 10.3924C53.5275 10.5223 53.4898 10.6671 53.488 10.8268V11.4876C53.488 11.6877 53.5249 11.8606 53.5986 12.0062C53.6741 12.1519 53.7803 12.2642 53.9172 12.3432C54.054 12.4222 54.2164 12.4617 54.4042 12.4617C54.5288 12.4617 54.6429 12.4441 54.7464 12.409C54.85 12.3739 54.9386 12.3213 55.0123 12.2511C55.086 12.1809 55.1422 12.0949 55.1808 11.9931L56.2181 12.0615C56.1654 12.3107 56.0575 12.5284 55.8943 12.7144C55.7328 12.8987 55.5239 13.0426 55.2677 13.1462C55.0132 13.248 54.7192 13.2989 54.3858 13.2989ZM58.8007 13.2989C58.3917 13.2989 58.0381 13.212 57.7397 13.0382C57.4431 12.8627 57.2141 12.6188 57.0526 12.3064C56.8911 11.9922 56.8104 11.628 56.8104 11.2138C56.8104 10.7961 56.8911 10.4311 57.0526 10.1186C57.2141 9.80449 57.4431 9.56053 57.7397 9.38678C58.0381 9.21127 58.3917 9.12351 58.8007 9.12351C59.2096 9.12351 59.5624 9.21127 59.859 9.38678C60.1574 9.56053 60.3873 9.80449 60.5487 10.1186C60.7102 10.4311 60.7909 10.7961 60.7909 11.2138C60.7909 11.628 60.7102 11.9922 60.5487 12.3064C60.3873 12.6188 60.1574 12.8627 59.859 13.0382C59.5624 13.212 59.2096 13.2989 58.8007 13.2989ZM58.8059 12.4301C58.992 12.4301 59.1473 12.3774 59.2719 12.2721C59.3965 12.1651 59.4904 12.0194 59.5536 11.8351C59.6185 11.6508 59.651 11.4411 59.651 11.2059C59.651 10.9707 59.6185 10.761 59.5536 10.5767C59.4904 10.3924 59.3965 10.2468 59.2719 10.1397C59.1473 10.0326 58.992 9.97912 58.8059 9.97912C58.6181 9.97912 58.4602 10.0326 58.3321 10.1397C58.2057 10.2468 58.11 10.3924 58.0451 10.5767C57.9819 10.761 57.9503 10.9707 57.9503 11.2059C57.9503 11.4411 57.9819 11.6508 58.0451 11.8351C58.11 12.0194 58.2057 12.1651 58.3321 12.2721C58.4602 12.3774 58.6181 12.4301 58.8059 12.4301Z" fill="#141E32"/>
<circle cx="12.6912" cy="10.7504" r="6.58976" fill="#F0C932"/>
<path d="M15.6771 10.7504L11.3526 13.2471V8.25359L15.6771 10.7504Z" fill="white"/>
</svg>
